<svg height="448pt" viewBox="0 -4 448 448" width="448pt" xmlns="http://www.w3.org/2000/svg"><path d="m336 135.773438h96v128h-96zm0 0" fill="#5a6470"/><path d="m0 135.773438h96v128h-96zm0 0" fill="#143441"/><path d="m16 407.773438h48v32h-48zm0 0" fill="#5a6470"/><path d="m112 343.773438h48v32h-48zm0 0" fill="#5a6470"/><path d="m192 231.773438h32v64h-32zm0 0" fill="#5a6470"/><path d="m384 407.773438h64v32h-64zm0 0" fill="#5a6470"/><g fill="#f6bf9b"><path d="m0 7.773438h96v96h-96zm0 0"/><path d="m128 103.773438v32h-80v32h112v-64zm0 0"/><path d="m160 71.773438c0 8.835937-7.164062 16-16 16s-16-7.164063-16-16c0-8.835938 7.164062-16 16-16s16 7.164062 16 16zm0 0"/><path d="m304 103.773438v32h80v32h-112v-64zm0 0"/><path d="m304 71.773438c0 8.835937-7.164062 16-16 16s-16-7.164063-16-16c0-8.835938 7.164062-16 16-16s16 7.164062 16 16zm0 0"/><path d="m336 7.773438h96v96h-96zm0 0"/></g><path d="m16 263.773438v144h32v-112h64v48h32v-80zm0 0" fill="#aabece"/><path d="m400 335.773438v-72h-176v32h144v56l40 56h40zm0 0" fill="#aabece"/><path d="m44.425781 38.929688 7.152344-14.308594 32 16-7.15625 14.308594zm0 0" fill="#143441"/><path d="m348.421875 40.621094 32-16 7.152344 14.3125-31.996094 16zm0 0" fill="#143441"/><path d="m256 55.773438h-16v-20.6875l-2.34375 2.34375c-1.695312 1.695312-4.058594 2.539062-6.445312 2.304687-2.382813-.234375-4.535157-1.527344-5.867188-3.519531l-9.34375-14.042969-9.34375 14.042969c-1.332031 1.992187-3.484375 3.285156-5.867188 3.519531-2.386718.234375-4.75-.609375-6.445312-2.304687l-2.34375-2.34375v20.6875h-16v-40c0-3.234376 1.949219-6.152344 4.9375-7.390626 2.988281-1.238281 6.429688-.550781 8.71875 1.734376l9.105469 9.105468 10.582031-15.890625c1.570312-2.097656 4.035156-3.332031 6.65625-3.332031s5.085938 1.234375 6.65625 3.332031l10.582031 15.890625 9.105469-9.105468c2.289062-2.285157 5.730469-2.972657 8.71875-1.734376 2.988281 1.238282 4.9375 4.15625 4.9375 7.390626zm0 0" fill="#e9686a"/><path d="m360 431.773438c-133.230469 0-151.71875-101.65625-151.886719-102.6875l15.773438-2.648438c.625 3.648438 16.808593 89.335938 136.113281 89.335938zm0 0" fill="#5a6470"/></svg>