<svg id="Capa_1" enable-background="new 0 0 512 512" height="512" viewBox="0 0 512 512" width="512" xmlns="http://www.w3.org/2000/svg"><g><path d="m428.304 512h-344.608c-17.723 0-32.09-14.367-32.09-32.09v-447.82c.001-17.723 14.368-32.09 32.09-32.09h344.607c17.723 0 32.09 14.367 32.09 32.09v447.82c0 17.723-14.367 32.09-32.089 32.09z" fill="#fd4755"/><path d="m419.046 385.217h-326.092c-2.191 0-3.968-1.776-3.968-3.968v-340.359c0-2.191 1.776-3.968 3.968-3.968h326.092c2.191 0 3.968 1.776 3.968 3.968v340.359c0 2.192-1.777 3.968-3.968 3.968z" fill="#f5f8f9"/><g fill="#f5f8f9"><path d="m171.788 419.924c-.027-.072-.055-.143-.085-.214-1.378-3.346-4.605-5.506-8.222-5.506-.004 0-.008 0-.011 0-3.622.004-6.848 2.173-8.219 5.526-.024.058-.047.116-.069.175l-19.311 50.705c-1.519 3.988.483 8.452 4.47 9.97.905.345 1.835.508 2.748.508 3.113 0 6.048-1.896 7.222-4.978l2.914-7.652h20.361l2.879 7.63c1.507 3.991 5.962 6.007 9.957 4.501 3.992-1.507 6.008-5.964 4.501-9.957zm-12.677 33.08 4.342-11.401 4.302 11.401z"/><path d="m245.342 414.203c-.025 0-.051 0-.076 0-4.267.041-7.693 3.534-7.651 7.8l.262 27.107-21.737-31.476c-1.921-2.782-5.428-3.991-8.657-2.986-3.228 1.007-5.427 3.995-5.427 7.376v51.333c0 4.267 3.459 7.726 7.726 7.726s7.726-3.459 7.726-7.726v-26.547l20.627 29.868c2.219 3.206 5.942 4.563 9.482 3.458 3.602-1.125 5.93-4.466 5.93-8.586l-.48-49.696c-.041-4.241-3.493-7.651-7.725-7.651z"/><path d="m368.493 429.89c4.267 0 7.726-3.459 7.726-7.726s-3.459-7.726-7.726-7.726h-21.472c-4.267 0-7.726 3.459-7.726 7.726v50.96c0 4.267 3.459 7.726 7.726 7.726h21.472c4.267 0 7.726-3.459 7.726-7.726s-3.459-7.726-7.726-7.726h-13.746v-10.028h12.162c4.267 0 7.726-3.459 7.726-7.726s-3.459-7.726-7.726-7.726h-12.162v-10.028z"/><path d="m103.402 414.963h-14.134c-2.052 0-4.019.816-5.468 2.268-1.45 1.452-2.262 3.421-2.258 5.473v.036.002 49.045c0 .472.049.931.13 1.38.137 1.851.928 3.599 2.254 4.915 1.448 1.437 3.404 2.243 5.443 2.243h.03c.427-.001 10.516-.041 14.552-.111 15.838-.277 27.332-13.974 27.332-32.569 0-19.548-11.204-32.682-27.881-32.682zm.279 49.8c-1.551.027-4.094.05-6.612.067-.018-5.77-.039-13.305-.039-17.241 0-3.305-.012-11.159-.023-17.173h6.395c11.532 0 12.428 13.187 12.428 17.228 0 8.415-3.756 16.972-12.149 17.119z"/><path d="m320.828 439.918h-15.385c-4.267 0-7.726 3.459-7.726 7.726s3.459 7.726 7.726 7.726h6.547c-1.791 5.712-5.894 10.262-13.361 10.262-9.919 0-17.988-8.069-17.988-17.988s8.069-17.988 17.988-17.988c3.605 0 7.081 1.061 10.052 3.068 3.537 2.389 8.34 1.458 10.728-2.077 2.389-3.536 1.459-8.339-2.077-10.728-5.535-3.739-12.003-5.716-18.703-5.716-18.44 0-33.441 15.001-33.441 33.441s15.001 33.441 33.441 33.441c17.619 0 29.925-13.752 29.925-33.441.001-4.267-3.458-7.726-7.726-7.726z"/><path d="m416.741 454.857c8.029-3.122 13.718-10.706 13.718-19.561 0-11.63-9.801-21.093-21.849-21.093h-13.667c-.003 0-.006 0-.008 0s-.006 0-.008 0c-4.267 0-7.726 3.459-7.726 7.726v51.43c0 4.267 3.459 7.726 7.726 7.726s7.726-3.459 7.726-7.726v-11.119l14.279 16.224c1.527 1.735 3.659 2.622 5.803 2.622 1.813 0 3.634-.634 5.102-1.927 3.203-2.819 3.515-7.701.695-10.904zm-8.131-25.202c3.467 0 6.396 2.582 6.396 5.64 0 3.057-2.929 5.639-6.396 5.639-1.408 0-3.637.008-5.888.018-.01-2.173-.018-4.309-.018-5.657 0-1.158-.005-3.355-.011-5.64z"/></g><g><path d="m329.313 184.443v-33.155c0-40.035-32.455-72.489-72.489-72.489-40.035 0-72.489 32.455-72.489 72.489v32.355c-6.62 2.812-11.264 9.373-11.264 17.019 0 10.208 8.275 18.482 18.482 18.482h17.701 95.138 16.054c10.208 0 18.482-8.275 18.482-18.482.001-6.994-3.885-13.079-9.615-16.219z" fill="#685e68"/><path d="m214.809 207.252v43.114c0 4.93 3.074 9.338 7.701 11.041l29.267 10.771c2.612.961 5.481.965 8.096.011l29.586-10.795c4.643-1.694 7.732-6.11 7.732-11.052v-43.089" fill="#685e68"/><path d="m329.313 184.443v-33.155c0-34.96-24.75-64.135-57.682-70.971 18.997 13.069 31.461 34.952 31.461 59.754v33.155c5.73 3.139 9.616 9.225 9.616 16.219 0 9.265-6.825 16.916-15.718 18.254-1.121-.033-2.243-.066-3.364-.099-6.508-.191-11.888 5.033-11.888 11.544v15.743c0 4.942-3.089 9.358-7.732 11.052l-29.586 10.795c-2.615.954-5.484.95-8.096-.011l-21.515-7.918v1.559c0 4.93 3.074 9.338 7.701 11.041l29.267 10.771c2.612.961 5.481.965 8.096.011l29.585-10.795c4.643-1.694 7.732-6.11 7.732-11.052v-31.196h7.202 15.575c10.061 0 18.639-7.838 18.952-17.894.226-7.239-3.716-13.58-9.606-16.807z" fill="#554e56"/><g><path d="m227.312 173.103h-.674c-8.534 0-15.453-6.918-15.453-15.453 0-8.534 6.918-15.453 15.453-15.453h.674c8.534 0 15.453 6.918 15.453 15.453 0 8.535-6.919 15.453-15.453 15.453z" fill="#fff"/><path d="m285.362 173.103h-.674c-8.534 0-15.453-6.918-15.453-15.453 0-8.534 6.918-15.453 15.453-15.453h.674c8.534 0 15.453 6.918 15.453 15.453-.001 8.535-6.919 15.453-15.453 15.453z" fill="#fff"/><g fill="#f5f8f9"><path d="m290.602 143.128c1.301 2.264 2.057 4.882 2.057 7.682 0 8.534-6.918 15.453-15.453 15.453h-.674c-1.843 0-3.602-.339-5.24-.931 2.667 4.64 7.661 7.771 13.396 7.771h.674c8.534 0 15.453-6.918 15.453-15.453-.001-6.692-4.262-12.373-10.213-14.522z"/><path d="m232.552 143.128c1.301 2.264 2.057 4.882 2.057 7.682 0 8.534-6.918 15.453-15.453 15.453h-.674c-1.843 0-3.602-.339-5.24-.931 2.666 4.64 7.661 7.771 13.396 7.771h.674c8.534 0 15.453-6.918 15.453-15.453 0-6.692-4.262-12.373-10.213-14.522z"/></g></g><g><path d="m248.889 218.497c-1.977 0-3.955-.755-5.463-2.263-3.018-3.017-3.018-7.909 0-10.927l4.736-4.736c4.283-4.283 11.251-4.282 15.532 0l4.705 4.705c3.018 3.017 3.018 7.909 0 10.927-3.017 3.017-7.909 3.017-10.927 0l-1.544-1.544-1.575 1.575c-1.509 1.509-3.486 2.263-5.464 2.263z" fill="#fff"/></g></g><g><path d="m353.112 317.991c-2.763-3.253-7.638-3.649-10.89-.887l-6.15 5.223-155.218-54.277-1.555-7.917c-.822-4.188-4.887-6.913-9.07-6.093-4.188.822-6.915 4.883-6.093 9.07l1.588 8.088-5.86 4.977c-3.253 2.762-3.65 7.638-.887 10.89 1.528 1.8 3.703 2.725 5.892 2.725 1.768 0 3.545-.604 4.998-1.838l6.15-5.223 154.689 54.093 1.555 7.917c.723 3.685 3.954 6.239 7.573 6.239.493 0 .995-.048 1.497-.146 4.188-.822 6.915-4.883 6.093-9.07l-1.481-7.545 6.282-5.336c3.252-2.761 3.65-7.638.887-10.89z" fill="#685e68"/><path d="m270.3 315.698 23.407-8.185-52.063-18.205-23.124 8.284z" fill="#554e56"/><path d="m352.136 276.079-6.282-5.336 1.481-7.545c.822-4.187-1.905-8.248-6.093-9.07-4.183-.823-8.248 1.905-9.07 6.093l-1.555 7.917-154.689 54.093-6.15-5.223c-3.253-2.762-8.128-2.365-10.89.887-2.763 3.253-2.365 8.128.887 10.89l5.86 4.977-1.588 8.088c-.822 4.187 1.905 8.248 6.093 9.07.503.099 1.003.146 1.497.146 3.618 0 6.85-2.555 7.573-6.239l1.555-7.917 155.217-54.278 6.15 5.223c1.453 1.234 3.23 1.838 4.998 1.838 2.19 0 4.365-.925 5.893-2.724 2.762-3.252 2.365-8.127-.887-10.89z" fill="#685e68"/></g></g></svg>