<svg id="Layer_3" enable-background="new 0 0 64 64" height="512" viewBox="0 0 64 64" width="512" xmlns="http://www.w3.org/2000/svg"><g><path d="m62 63v-6l-18.108-4.115c-2.277-.518-3.892-2.542-3.892-4.876v-6.009h-16v6.009c0 2.334-1.615 4.358-3.892 4.876l-18.108 4.115v6" fill="#4472b2"/><path d="m40 40v8.009l-8 5.991-8-5.991v-8.009" fill="#efbe9a"/><path d="m16 22v3l2 9h2l.159 1.115c.526 3.685 2.828 6.878 6.157 8.543 1.765.883 3.711 1.342 5.684 1.342 1.973 0 3.919-.459 5.683-1.342 3.33-1.665 5.631-4.857 6.157-8.543l.16-1.115h2l2-9v-3" fill="#efbe9a"/><path d="m20 24c1.249 1.874 3.353 3 5.606 3h12.789c2.253 0 4.356-1.126 5.606-3v-3h-24.001z" fill="#243242"/><path d="m48 18 .127-.085c1.882-1.255 3.405-2.979 4.416-5.003l.457-.912-.193-.232c-3.123-3.748-7.358-6.406-12.091-7.589l-8.716-2.179-8.716 2.179c-4.733 1.183-8.967 3.841-12.091 7.589l-.193.232.456.912c1.012 2.024 2.534 3.748 4.416 5.003l.128.085" fill="#4472b2"/><path d="m16 25 8.081-1.347c2.608-.435 5.248-.653 7.892-.653h.055c2.644 0 5.283.218 7.891.653l8.081 1.347v-7l-8.081-1.347c-2.608-.435-5.248-.653-7.892-.653h-.055c-2.644 0-5.283.218-7.891.653l-8.081 1.347z" fill="#4d5d7a"/><path d="m24 48.009 8 5.991-7 6-4.892-7.115" fill="#2d4d83"/><path d="m17 56.249v-2.658l-15 3.409v3l13.264-1.769c.994-.132 1.736-.98 1.736-1.982z" fill="#f5b953"/><path d="m40 48.009-8 5.991 7 6 4.892-7.115" fill="#2d4d83"/><path d="m47 56.249c0 1.002.742 1.85 1.736 1.982l13.264 1.769v-3l-15-3.409z" fill="#f5b953"/><path d="m27.692 57.692 3.308 3.308h2l3.308-3.308-4.308-3.692z" fill="#4d5d7a"/><path d="m32.213 13.947-.213.053-.213-.053c-2.226-.557-3.787-2.557-3.787-4.851v-3.096h8v3.096c0 2.294-1.561 4.294-3.787 4.851z" fill="#f5b953"/><g fill="#8892a0"><path d="m50 58.4 2 .267v-3.94l-2-.454z"/><path d="m54 58.933 2 .267v-3.564l-2-.454z"/><path d="m8 59.2 2-.267v-3.751l-2 .454z"/><path d="m12 58.667 2-.267v-4.127l-2 .454z"/></g></g></svg>