<?xml version="1.0" encoding="iso-8859-1"?>
<!-- Generator: Adobe Illustrator 19.0.0, SVG Export Plug-In . SVG Version: 6.00 Build 0)  -->
<svg version="1.1" id="Capa_1" xmlns="http://www.w3.org/2000/svg" xmlns:xlink="http://www.w3.org/1999/xlink" x="0px" y="0px"
	 viewBox="0 0 512.001 512.001" style="enable-background:new 0 0 512.001 512.001;" xml:space="preserve">
<g>
	<path style="fill:#EDCAA6;" d="M98.887,130.019c-10.824,0-19.599,8.775-19.599,19.599v15.109c0,10.824,8.775,19.599,19.599,19.599
		h11.037l-0.027-54.307L98.887,130.019L98.887,130.019z"/>
	<path style="fill:#EDCAA6;" d="M323.066,164.727v-15.109c0-10.824-8.775-19.599-19.599-19.599h-11.01l-0.027,54.307h11.037
		C314.291,184.326,323.066,175.551,323.066,164.727z"/>
</g>
<path style="fill:#FFE7CF;" d="M341.335,332.132l-76.062-14.129c-9.763-1.962-16.788-13.288-16.788-23.247v-44.379h-47.308h-0.001
	h-47.308v44.379c0,9.959-7.024,21.285-16.788,23.247l-76.062,14.129C24.84,342.785,0,375.993,0,413.708v84.685
	c0,6.204,5.029,11.233,11.233,11.233h379.888c6.204,0,11.233-5.029,11.233-11.233v-84.685
	C402.354,375.993,377.513,342.785,341.335,332.132z"/>
<path style="fill:#EDEDED;" d="M194.781,477.704L194.781,477.704L194.781,477.704z"/>
<path style="fill:#FFE7CF;" d="M299.603,111.549v-1.858c0-26.596-10.919-52.368-31.073-69.722
	c-15.801-13.606-38.012-25.481-67.353-25.809c-29.34,0.327-51.551,12.203-67.353,25.809c-20.154,17.354-31.073,43.125-31.073,69.722
	v1.858c0,0,0.047,73.679,0.061,85.291c0.022,18.282,8.325,35.575,22.581,47.02l45.482,36.515c4.503,3.615,10.104,5.586,15.879,5.586
	h28.845c5.776,0,11.376-1.969,15.879-5.586c8.846-7.104,24.677-19.818,38.841-31.192c18.443-14.811,29.187-37.173,29.227-60.827
	C299.558,180.819,299.603,111.549,299.603,111.549z"/>
<path style="fill:#F4D3A6;" d="M268.529,39.97c-15.801-13.606-38.012-25.481-67.353-25.809c-7.342,0.082-14.237,0.887-20.698,2.261
	c19.357,4.118,34.808,13.346,46.655,23.547c20.154,17.354,31.073,43.125,31.073,69.722v1.858c0,0-0.044,69.27-0.057,76.807
	c-0.04,23.654-10.784,46.016-29.227,60.827c-14.164,11.374-29.995,24.088-38.841,31.192c-2.841,2.282-6.12,3.904-9.603,4.793
	c2.037,0.52,4.144,0.793,6.275,0.793h28.844c5.776,0,11.376-1.969,15.879-5.586c8.846-7.104,24.677-19.818,38.841-31.192
	c18.443-14.811,29.187-37.173,29.227-60.827c0.013-7.537,0.057-76.807,0.057-76.807v-1.858
	C299.603,83.095,288.684,57.323,268.529,39.97z"/>
<path style="fill:#423E38;" d="M341.335,332.132l-76.062-14.129l0,0c-35.739,34.569-92.453,34.569-128.192,0l0,0l-76.062,14.129
	C24.84,342.785,0,375.993,0,413.708v84.685c0,6.204,5.029,11.233,11.233,11.233h379.888c6.204,0,11.233-5.029,11.233-11.233v-84.685
	C402.354,375.993,377.513,342.785,341.335,332.132z"/>
<path style="fill:#3F3F3E;" d="M374.076,350.38c-0.837-0.751-1.69-1.485-2.558-2.204c-1.736-1.437-3.533-2.807-5.387-4.107
	c-2.781-1.95-5.692-3.742-8.72-5.36c-5.048-2.697-10.424-4.912-16.077-6.576l-76.062-14.129l0,0l0,0
	c-10.716,10.365-23.323,17.598-36.679,21.747l71.651,13.31c36.179,10.652,61.019,43.861,61.019,81.576v74.99h29.857
	c1.939,0,3.763-0.491,5.354-1.356c0.318-0.173,0.627-0.361,0.926-0.563c1.793-1.211,3.217-2.926,4.07-4.942
	c0.568-1.344,0.883-2.821,0.883-4.372v-84.685C402.354,388.958,391.656,366.148,374.076,350.38z"/>
<path style="fill:#332F2A;" d="M332.523,286.94c-11.261-14.729-47.877-25.681-65.513-35.099
	c-6.224,4.998-12.629,10.141-18.524,14.876v28.039c0,9.959,7.024,21.285,16.788,23.247c-35.739,34.569-92.453,34.569-128.192,0
	c9.763-1.962,16.788-13.288,16.788-23.247v-28.034l-18.532-14.878c-17.638,9.417-54.247,20.369-65.506,35.095
	c-7.866,10.288-8.295,25.204-2.521,36.105c3.856,7.28,16.132,14.816,31.787,21.889c64.815,29.282,139.341,29.282,204.157,0.001
	c15.656-7.073,27.934-14.61,31.79-21.89C340.817,312.144,340.389,297.228,332.523,286.94z"/>
<path style="fill:#28231E;" d="M332.523,286.94c-11.261-14.729-47.877-25.681-65.513-35.099c-4.91,3.943-9.923,7.968-14.719,11.82
	c15.7,6.691,32.047,14.28,38.927,23.279c7.866,10.288,8.295,25.204,2.521,36.105c-3.856,7.28-16.134,14.817-31.79,21.89
	c-25.997,11.744-53.557,18.766-81.425,21.089c41.612,3.469,83.912-3.553,122.731-21.089c15.656-7.073,27.934-14.61,31.79-21.89
	C340.817,312.144,340.389,297.228,332.523,286.94z"/>
<g>
	<path style="fill:#2D5872;" d="M175.106,182.729h-31.272c-7.546,0-13.664-6.118-13.664-13.664v-19.004h58.6v19.004
		C188.77,176.611,182.653,182.729,175.106,182.729z"/>
	<path style="fill:#2D5872;" d="M258.493,182.729h-31.272c-7.546,0-13.664-6.118-13.664-13.664v-19.004h58.6v19.004
		C272.157,176.611,266.039,182.729,258.493,182.729z"/>
</g>
<path style="fill:#8AC129;" d="M417.486,283.23c-5.141-14.969,5.805-38.387,14.959-50.064c3.695-4.713,0.205-11.602-5.783-11.459
	l-62.894,1.5c-5.987,0.143-9.145,7.19-5.23,11.722c9.7,11.227,21.75,34.097,17.329,49.294
	c-72.532,62.18-88.659,99.397-87.462,149.551c1.035,43.419,38.807,76.986,82.226,75.951l31.418-0.749l31.418-0.749
	c43.419-1.035,79.547-36.365,78.512-79.784C510.782,378.287,492.9,341.881,417.486,283.23z"/>
<path style="fill:#7DA820;" d="M417.486,283.23c-5.141-14.969,5.805-38.387,14.959-50.064c3.695-4.713,0.205-11.602-5.783-11.459
	l-20.959,0.5c-8.679,14.209-18.366,44.853-13.688,58.473c75.413,58.651,77.162,97.607,78.358,147.762
	c1.035,43.419-35.092,78.749-78.512,79.784l-31.418,0.749l-2.454,0.058c4.14,0.547,8.361,0.793,12.641,0.691l31.418-0.749
	l31.418-0.749c43.419-1.035,79.547-36.365,78.512-79.784C510.782,378.287,492.9,341.881,417.486,283.23z"/>
<path style="fill:#93D632;" d="M425.218,290.956c-19.01,4.573-37.532,5.013-56.734,1.352c-6.912-1.318-11.283-8.204-9.622-15.042
	l0,0c1.542-6.352,7.766-10.399,14.199-9.238c15.797,2.849,30.785,2.491,46.429-1.107c6.37-1.465,12.78,2.28,14.623,8.551l0,0
	C436.098,282.223,432.06,289.31,425.218,290.956z"/>
<path style="fill:#423E38;" d="M299.196,195.55c-0.328,0.058-0.655,0.119-0.986,0.17l-47.481,7.229
	c-36.024,5.485-72.686,5.28-108.647-0.607l-38.041-6.227c-0.416-0.068-0.819-0.168-1.23-0.249c0,0.357,0.001,0.69,0.001,0.975
	c0.022,18.282,8.325,35.575,22.58,47.02l45.482,36.515c4.503,3.615,10.104,5.585,15.879,5.585h28.844
	c5.776,0,11.376-1.969,15.879-5.586c8.846-7.104,24.677-19.818,38.841-31.192C286.88,235.884,297.226,216.495,299.196,195.55z"/>
<path style="fill:#332F2A;" d="M273.46,246.516c0.867-0.774,1.711-1.569,2.538-2.377c0.139-0.136,0.278-0.271,0.416-0.408
	c0.813-0.806,1.607-1.629,2.381-2.467c0.125-0.136,0.249-0.272,0.373-0.409c0.786-0.863,1.554-1.739,2.298-2.634
	c0.073-0.088,0.144-0.178,0.217-0.266c1.565-1.899,3.037-3.866,4.41-5.895c0.059-0.087,0.12-0.174,0.179-0.261
	c0.662-0.986,1.298-1.988,1.913-3.002c0.071-0.117,0.142-0.233,0.212-0.35c0.61-1.016,1.197-2.046,1.759-3.088
	c0.054-0.099,0.106-0.199,0.159-0.298c0.577-1.081,1.132-2.173,1.657-3.279c0.008-0.017,0.015-0.033,0.023-0.05
	c1.097-2.313,2.08-4.68,2.946-7.093c0.009-0.025,0.019-0.05,0.028-0.075c0.422-1.18,0.815-2.372,1.18-3.573
	c0.018-0.061,0.037-0.121,0.055-0.181c0.362-1.201,0.697-2.411,1.001-3.63c0.009-0.035,0.017-0.069,0.025-0.104
	c0.936-3.769,1.596-7.62,1.964-11.527c-0.328,0.058-0.655,0.119-0.986,0.17l-41.289,6.287
	c-3.302,18.441-13.153,35.256-27.998,47.177c-14.164,11.374-29.995,24.088-38.841,31.192c-2.841,2.282-6.12,3.904-9.603,4.793l0,0
	c0.579,0.148,1.165,0.271,1.754,0.377c0.222,0.04,0.445,0.072,0.668,0.106c0.436,0.067,0.874,0.124,1.314,0.168
	c0.206,0.021,0.412,0.043,0.619,0.059c0.637,0.048,1.276,0.082,1.918,0.082h28.844c5.776,0,11.376-1.969,15.879-5.586
	c8.846-7.104,24.677-19.818,38.841-31.192c0.957-0.769,1.889-1.563,2.804-2.371C273.235,246.713,273.349,246.616,273.46,246.516z"/>
<path style="fill:#F4D3A6;" d="M252.16,307.714c-0.999-1.707-1.816-3.53-2.425-5.4c-0.811-2.493-1.25-5.068-1.25-7.558v-28.039
	c-6.665,5.352-12.676,10.18-17.008,13.658c-4.503,3.616-10.104,5.586-15.879,5.586h-9.384v27.171
	c0,9.959,7.024,21.285,16.788,23.247l10.036,1.864c11.702-4.303,22.716-11.033,32.236-20.24
	C259.781,316.9,255.155,312.833,252.16,307.714z"/>
<path style="fill:#423E38;" d="M201.022,2.254L201.022,2.254c-0.006-0.001-0.012-0.001-0.018,0c-0.006,0-0.012-0.001-0.018-0.001
	v0.001c-69.448,1.723-107.56,77.467-107.56,106.858v2.079c0,0,0.002,3.849,0.006,10.006h107.553h0.036h107.553
	c0.004-6.157,0.006-10.006,0.006-10.006v-2.079C308.581,79.721,270.47,3.978,201.022,2.254z"/>
<path style="fill:#332F2A;" d="M201.022,2.254L201.022,2.254c-0.006-0.001-0.012-0.001-0.018,0c-0.006,0-0.012-0.001-0.018-0.001
	v0.001c-7.367,0.183-14.377,1.206-21.031,2.911c56.07,14.368,86.529,77.673,86.529,103.947v2.079c0,0-0.003,3.849-0.007,10.006
	h42.098c0.004-6.157,0.006-10.006,0.006-10.006v-2.079C308.581,79.721,270.47,3.978,201.022,2.254z"/>
<path id="SVGCleanerId_0" style="fill:#28231E;" d="M307.376,121.197H94.977c-7.538,0-13.648-6.11-13.648-13.648l0,0
	c0-7.538,6.11-13.648,13.648-13.648h212.399c7.538,0,13.648,6.11,13.648,13.648l0,0
	C321.024,115.087,314.914,121.197,307.376,121.197z"/>
<g>
	<path id="SVGCleanerId_0_1_" style="fill:#28231E;" d="M307.376,121.197H94.977c-7.538,0-13.648-6.11-13.648-13.648l0,0
		c0-7.538,6.11-13.648,13.648-13.648h212.399c7.538,0,13.648,6.11,13.648,13.648l0,0
		C321.024,115.087,314.914,121.197,307.376,121.197z"/>
</g>
<path style="fill:#FFFFFF;" d="M403.804,399.013v-23.691c8.169,0.583,11.204,4.318,14.004,4.318c3.501,0,5.135-4.434,5.135-6.652
	c0-5.719-11.204-8.17-19.139-8.403v-3.151c0-1.4-1.751-2.684-3.501-2.684c-1.984,0-3.385,1.284-3.385,2.684v3.385
	c-11.087,1.167-22.174,7.003-22.174,21.708c0,14.938,11.67,19.139,22.174,22.874v27.426c-11.904-0.934-15.055-9.103-18.906-9.103
	c-2.918,0-5.369,3.851-5.369,6.652c0,5.719,9.803,13.539,24.275,13.772v3.618c0,1.401,1.401,2.684,3.385,2.684
	c1.751,0,3.501-1.283,3.501-2.684v-3.968c12.603-1.751,21.24-9.687,21.24-24.041C425.044,407.882,413.957,402.747,403.804,399.013z
	 M397.618,396.795c-6.185-2.334-11.204-4.784-11.204-11.437c0-6.068,4.669-8.986,11.204-9.803V396.795z M403.103,436.592v-24.626
	c5.718,2.452,10.271,5.719,10.271,13.072C413.374,431.69,409.406,435.424,403.103,436.592z"/>
<path style="fill:#1D4559;" d="M306.701,147.885L306.701,147.885c0-4.141-3.357-7.498-7.498-7.498H105.417
	c-4.141,0-7.498,3.357-7.498,7.498l0,0c0,4.141,3.357,7.498,7.498,7.498h193.785C303.344,155.383,306.701,152.026,306.701,147.885z"
	/>
<g>
</g>
<g>
</g>
<g>
</g>
<g>
</g>
<g>
</g>
<g>
</g>
<g>
</g>
<g>
</g>
<g>
</g>
<g>
</g>
<g>
</g>
<g>
</g>
<g>
</g>
<g>
</g>
<g>
</g>
</svg>
